<?xml version="1.0" encoding="UTF-8"?>
<svg xmlns="http://www.w3.org/2000/svg" xmlns:xlink="http://www.w3.org/1999/xlink" viewBox="0 0 50 50" width="50px" height="50px">
<g id="surface48806057">
<path style=" stroke:none;fill-rule:nonzero;fill:rgb(18.82353%,68.627453%,75.686276%);fill-opacity:1;" d="M 13 4 C 8.042969 4 4 8.042969 4 13 L 4 37 C 4 41.957031 8.042969 46 13 46 L 37 46 C 41.957031 46 46 41.957031 46 37 L 46 13 C 46 8.042969 41.957031 4 37 4 Z M 13 6 L 37 6 C 40.878906 6 44 9.121094 44 13 L 44 37 C 44 40.878906 40.878906 44 37 44 L 13 44 C 9.121094 44 6 40.878906 6 37 L 6 13 C 6 9.121094 9.121094 6 13 6 Z M 33.558594 11.003906 C 33.449219 10.996094 33.335938 11.003906 33.222656 11.027344 L 20.628906 13.386719 C 19.691406 13.5625 19 14.398438 19 15.355469 L 19 28.988281 C 19 28.992188 19 28.996094 19 29 C 19 30.117188 18.117188 31 17 31 L 15.167969 31 C 13.046875 31 11.121094 32.59375 11.003906 34.785156 C 10.886719 37.074219 12.730469 39 15 39 L 15.5 39 C 18.527344 39 21 36.527344 21 33.5 L 21 20.457031 L 33 18.207031 L 33 26 C 33 27.117188 32.117188 28 31 28 L 29.167969 28 C 27.046875 28 25.121094 29.59375 25.003906 31.785156 C 24.886719 34.074219 26.730469 36 29 36 L 29.5 36 C 32.527344 36 35 33.527344 35 30.5 L 35 12.5 C 35 11.699219 34.332031 11.039062 33.558594 11.003906 Z M 33 13.105469 L 33 16.171875 L 21 18.421875 L 21 15.355469 Z M 33 29.378906 L 33 30.5 C 33 32.445312 31.445312 34 29.5 34 L 29 34 C 27.847656 34 26.941406 33.0625 27.003906 31.890625 C 27.058594 30.835938 28.046875 30 29.167969 30 L 31 30 C 31.742188 30 32.402344 29.738281 33 29.378906 Z M 19 32.378906 L 19 33.5 C 19 35.445312 17.445312 37 15.5 37 L 15 37 C 13.847656 37 12.941406 36.0625 13.003906 34.890625 C 13.058594 33.835938 14.046875 33 15.167969 33 L 17 33 C 17.742188 33 18.402344 32.738281 19 32.378906 Z M 19 32.378906 "/>
</g>
</svg>
